<svg xmlns="http://www.w3.org/2000/svg" version="1.1" xmlns:xlink="http://www.w3.org/1999/xlink" xmlns:svgjs="http://svgjs.com/svgjs" width="1440" height="560" preserveAspectRatio="none" viewBox="0 0 1440 560"><g mask="url(&quot;#SvgjsMask1000&quot;)" fill="none"><rect width="1440" height="560" x="0" y="0" fill="#1e3266"></rect><path d="M1464 560L0 560 L0 358.67Q59.84 298.51, 120 358.36Q189.67 308.03, 240 377.7Q258.94 324.64, 312 343.59Q365.9 277.49, 432 331.38Q482.94 310.32, 504 361.26Q554.18 291.44, 624 341.62Q662.4 260.02, 744 298.43Q790.63 273.06, 816 319.68Q884.87 268.55, 936 337.41Q975.29 256.7, 1056 295.99Q1121.57 241.56, 1176 307.12Q1218.43 277.56, 1248 319.99Q1267.7 267.69, 1320 287.39Q1363.33 258.72, 1392 302.05Q1437.33 275.38, 1464 320.71z" fill="#182f5d"></path><path d="M1464 560L0 560 L0 393.21Q41.73 362.94, 72 404.67Q88.79 349.46, 144 366.25Q186.79 337.04, 216 379.83Q260.85 352.68, 288 397.53Q353.36 342.88, 408 408.24Q457.02 385.26, 480 434.28Q487.77 370.05, 552 377.82Q603.34 309.15, 672 360.49Q721.77 338.26, 744 388.03Q830.53 354.56, 864 441.09Q914.85 371.93, 984 422.78Q1034.23 353.01, 1104 403.24Q1149.33 328.57, 1224 373.9Q1306.01 335.91, 1344 417.92Q1396.02 349.94, 1464 401.96z" fill="#25467d"></path><path d="M1512 560L0 560 L0 461.18Q61.5 402.69, 120 464.19Q172.58 396.77, 240 449.36Q267.81 405.18, 312 432.99Q389.88 390.88, 432 468.76Q480.25 445, 504 493.25Q534.16 403.41, 624 433.57Q667.29 404.86, 696 448.14Q787.71 419.85, 816 511.56Q851.05 426.61, 936 461.66Q952.43 406.09, 1008 422.52Q1075.38 369.9, 1128 437.28Q1225.63 414.91, 1248 512.55Q1251.69 444.24, 1320 447.93Q1342.24 398.17, 1392 420.41Q1471.09 379.5, 1512 458.58z" fill="#356cb1"></path><path d="M1560 560L0 560 L0 536.76Q48.23 464.99, 120 513.21Q172.82 446.03, 240 498.85Q332.23 471.08, 360 563.31Q375.2 506.51, 432 521.71Q497.26 466.97, 552 532.23Q610.17 518.4, 624 576.58Q653.2 533.78, 696 562.97Q749.87 496.84, 816 550.71Q861.3 476.01, 936 521.31Q980.87 494.17, 1008 539.04Q1077.81 488.85, 1128 558.65Q1176.3 534.95, 1200 583.25Q1221.76 485, 1320 506.76Q1388.88 455.64, 1440 524.52Q1531.19 495.71, 1560 586.9z" fill="white"></path></g><defs><mask id="SvgjsMask1000"><rect width="1440" height="560" fill="#ffffff"></rect></mask></defs></svg>